<svg id="visual" viewBox="0 0 900 600" width="900" height="600" xmlns="http://www.w3.org/2000/svg" xmlns:xlink="http://www.w3.org/1999/xlink" version="1.1"><rect x="0" y="0" width="900" height="600" fill="#001220"></rect><defs><linearGradient id="grad1_0" x1="33.3%" y1="0%" x2="100%" y2="100%"><stop offset="20%" stop-color="#fbae3c" stop-opacity="1"></stop><stop offset="80%" stop-color="#fbae3c" stop-opacity="1"></stop></linearGradient></defs><defs><linearGradient id="grad1_1" x1="33.3%" y1="0%" x2="100%" y2="100%"><stop offset="20%" stop-color="#fbae3c" stop-opacity="1"></stop><stop offset="80%" stop-color="#f48350" stop-opacity="1"></stop></linearGradient></defs><defs><linearGradient id="grad1_2" x1="33.3%" y1="0%" x2="100%" y2="100%"><stop offset="20%" stop-color="#d96162" stop-opacity="1"></stop><stop offset="80%" stop-color="#f48350" stop-opacity="1"></stop></linearGradient></defs><defs><linearGradient id="grad1_3" x1="33.3%" y1="0%" x2="100%" y2="100%"><stop offset="20%" stop-color="#d96162" stop-opacity="1"></stop><stop offset="80%" stop-color="#af4b6d" stop-opacity="1"></stop></linearGradient></defs><defs><linearGradient id="grad1_4" x1="33.3%" y1="0%" x2="100%" y2="100%"><stop offset="20%" stop-color="#7c3e6b" stop-opacity="1"></stop><stop offset="80%" stop-color="#af4b6d" stop-opacity="1"></stop></linearGradient></defs><defs><linearGradient id="grad1_5" x1="33.3%" y1="0%" x2="100%" y2="100%"><stop offset="20%" stop-color="#7c3e6b" stop-opacity="1"></stop><stop offset="80%" stop-color="#49335c" stop-opacity="1"></stop></linearGradient></defs><defs><linearGradient id="grad1_6" x1="33.3%" y1="0%" x2="100%" y2="100%"><stop offset="20%" stop-color="#1d2540" stop-opacity="1"></stop><stop offset="80%" stop-color="#49335c" stop-opacity="1"></stop></linearGradient></defs><defs><linearGradient id="grad1_7" x1="33.3%" y1="0%" x2="100%" y2="100%"><stop offset="20%" stop-color="#1d2540" stop-opacity="1"></stop><stop offset="80%" stop-color="#001220" stop-opacity="1"></stop></linearGradient></defs><defs><linearGradient id="grad2_0" x1="0%" y1="0%" x2="66.7%" y2="100%"><stop offset="20%" stop-color="#fbae3c" stop-opacity="1"></stop><stop offset="80%" stop-color="#fbae3c" stop-opacity="1"></stop></linearGradient></defs><defs><linearGradient id="grad2_1" x1="0%" y1="0%" x2="66.7%" y2="100%"><stop offset="20%" stop-color="#f48350" stop-opacity="1"></stop><stop offset="80%" stop-color="#fbae3c" stop-opacity="1"></stop></linearGradient></defs><defs><linearGradient id="grad2_2" x1="0%" y1="0%" x2="66.7%" y2="100%"><stop offset="20%" stop-color="#f48350" stop-opacity="1"></stop><stop offset="80%" stop-color="#d96162" stop-opacity="1"></stop></linearGradient></defs><defs><linearGradient id="grad2_3" x1="0%" y1="0%" x2="66.7%" y2="100%"><stop offset="20%" stop-color="#af4b6d" stop-opacity="1"></stop><stop offset="80%" stop-color="#d96162" stop-opacity="1"></stop></linearGradient></defs><defs><linearGradient id="grad2_4" x1="0%" y1="0%" x2="66.7%" y2="100%"><stop offset="20%" stop-color="#af4b6d" stop-opacity="1"></stop><stop offset="80%" stop-color="#7c3e6b" stop-opacity="1"></stop></linearGradient></defs><defs><linearGradient id="grad2_5" x1="0%" y1="0%" x2="66.7%" y2="100%"><stop offset="20%" stop-color="#49335c" stop-opacity="1"></stop><stop offset="80%" stop-color="#7c3e6b" stop-opacity="1"></stop></linearGradient></defs><defs><linearGradient id="grad2_6" x1="0%" y1="0%" x2="66.7%" y2="100%"><stop offset="20%" stop-color="#49335c" stop-opacity="1"></stop><stop offset="80%" stop-color="#1d2540" stop-opacity="1"></stop></linearGradient></defs><defs><linearGradient id="grad2_7" x1="0%" y1="0%" x2="66.7%" y2="100%"><stop offset="20%" stop-color="#001220" stop-opacity="1"></stop><stop offset="80%" stop-color="#1d2540" stop-opacity="1"></stop></linearGradient></defs><g transform="translate(900, 0)"><path d="M0 405.6C-76.7 398.3 -153.3 391 -202.8 351.3C-252.3 311.6 -274.7 239.4 -304 175.5C-333.3 111.6 -369.4 55.8 -405.6 0L0 0Z" fill="#0c1c30"></path><path d="M0 354.9C-67.1 348.5 -134.1 342.1 -177.5 307.4C-220.8 272.6 -240.4 209.5 -266 153.6C-291.6 97.6 -323.3 48.8 -354.9 0L0 0Z" fill="#312c4f"></path><path d="M0 304.2C-57.5 298.7 -115 293.2 -152.1 263.5C-189.2 233.7 -206 179.6 -228 131.6C-249.9 83.7 -277.1 41.8 -304.2 0L0 0Z" fill="#623965"></path><path d="M0 253.5C-47.9 248.9 -95.8 244.4 -126.8 219.6C-157.7 194.7 -171.7 149.7 -190 109.7C-208.3 69.7 -230.9 34.9 -253.5 0L0 0Z" fill="#96446e"></path><path d="M0 202.8C-38.3 199.2 -76.7 195.5 -101.4 175.6C-126.2 155.8 -137.3 119.7 -152 87.8C-166.6 55.8 -184.7 27.9 -202.8 0L0 0Z" fill="#c55469"></path><path d="M0 152.1C-28.7 149.4 -57.5 146.6 -76.1 131.7C-94.6 116.8 -103 89.8 -114 65.8C-125 41.8 -138.5 20.9 -152.1 0L0 0Z" fill="#e9705a"></path><path d="M0 101.4C-19.2 99.6 -38.3 97.7 -50.7 87.8C-63.1 77.9 -68.7 59.9 -76 43.9C-83.3 27.9 -92.4 13.9 -101.4 0L0 0Z" fill="#fa9845"></path><path d="M0 50.7C-9.6 49.8 -19.2 48.9 -25.4 43.9C-31.5 38.9 -34.3 29.9 -38 21.9C-41.7 13.9 -46.2 7 -50.7 0L0 0Z" fill="#fbae3c"></path></g><g transform="translate(0, 600)"><path d="M0 -405.6C75 -397.4 150.1 -389.1 202.8 -351.3C255.6 -313.4 286 -246 316.1 -182.5C346.2 -119 375.9 -59.5 405.6 0L0 0Z" fill="#0c1c30"></path><path d="M0 -354.9C65.7 -347.7 131.3 -340.5 177.5 -307.4C223.6 -274.3 250.3 -215.2 276.6 -159.7C302.9 -104.1 328.9 -52.1 354.9 0L0 0Z" fill="#312c4f"></path><path d="M0 -304.2C56.3 -298 112.6 -291.8 152.1 -263.5C191.7 -235.1 214.5 -184.5 237.1 -136.9C259.6 -89.3 281.9 -44.6 304.2 0L0 0Z" fill="#623965"></path><path d="M0 -253.5C46.9 -248.4 93.8 -243.2 126.8 -219.6C159.7 -195.9 178.8 -153.7 197.6 -114.1C216.4 -74.4 234.9 -37.2 253.5 0L0 0Z" fill="#96446e"></path><path d="M0 -202.8C37.5 -198.7 75 -194.6 101.4 -175.6C127.8 -156.7 143 -123 158 -91.3C173.1 -59.5 188 -29.8 202.8 0L0 0Z" fill="#c55469"></path><path d="M0 -152.1C28.1 -149 56.3 -145.9 76.1 -131.7C95.8 -117.5 107.3 -92.2 118.5 -68.4C129.8 -44.6 141 -22.3 152.1 0L0 0Z" fill="#e9705a"></path><path d="M0 -101.4C18.8 -99.3 37.5 -97.3 50.7 -87.8C63.9 -78.4 71.5 -61.5 79 -45.6C86.5 -29.8 94 -14.9 101.4 0L0 0Z" fill="#fa9845"></path><path d="M0 -50.7C9.4 -49.7 18.8 -48.6 25.4 -43.9C31.9 -39.2 35.8 -30.7 39.5 -22.8C43.3 -14.9 47 -7.4 50.7 0L0 0Z" fill="#fbae3c"></path></g></svg>