<svg id="visual" viewBox="0 0 900 600" width="900" height="600" xmlns="http://www.w3.org/2000/svg" xmlns:xlink="http://www.w3.org/1999/xlink" version="1.1"><path d="M827 600L827 585.7C827 571.3 827 542.7 827 514.2C827 485.7 827 457.3 828.5 428.8C830 400.3 833 371.7 836 343C839 314.3 842 285.7 843.5 257C845 228.3 845 199.7 840.5 171.2C836 142.7 827 114.3 824 85.8C821 57.3 824 28.7 825.5 14.3L827 0L900 0L900 14.3C900 28.7 900 57.3 900 85.8C900 114.3 900 142.7 900 171.2C900 199.7 900 228.3 900 257C900 285.7 900 314.3 900 343C900 371.7 900 400.3 900 428.8C900 457.3 900 485.7 900 514.2C900 542.7 900 571.3 900 585.7L900 600Z" fill="#fbae3c"></path><path d="M764 600L764 585.7C764 571.3 764 542.7 767 514.2C770 485.7 776 457.3 777.5 428.8C779 400.3 776 371.7 779 343C782 314.3 791 285.7 795.5 257C800 228.3 800 199.7 792.5 171.2C785 142.7 770 114.3 764 85.8C758 57.3 761 28.7 762.5 14.3L764 0L828 0L826.5 14.3C825 28.7 822 57.3 825 85.8C828 114.3 837 142.7 841.5 171.2C846 199.7 846 228.3 844.5 257C843 285.7 840 314.3 837 343C834 371.7 831 400.3 829.5 428.8C828 457.3 828 485.7 828 514.2C828 542.7 828 571.3 828 585.7L828 600Z" fill="#e66d5b"></path><path d="M710 600L710 585.7C710 571.3 710 542.7 714.5 514.2C719 485.7 728 457.3 728 428.8C728 400.3 719 371.7 720.5 343C722 314.3 734 285.7 738.5 257C743 228.3 740 199.7 732.5 171.2C725 142.7 713 114.3 708.5 85.8C704 57.3 707 28.7 708.5 14.3L710 0L765 0L763.5 14.3C762 28.7 759 57.3 765 85.8C771 114.3 786 142.7 793.5 171.2C801 199.7 801 228.3 796.5 257C792 285.7 783 314.3 780 343C777 371.7 780 400.3 778.5 428.8C777 457.3 771 485.7 768 514.2C765 542.7 765 571.3 765 585.7L765 600Z" fill="#a6486e"></path><path d="M530 600L534.5 585.7C539 571.3 548 542.7 549.5 514.2C551 485.7 545 457.3 539 428.8C533 400.3 527 371.7 531.5 343C536 314.3 551 285.7 560 257C569 228.3 572 199.7 564.5 171.2C557 142.7 539 114.3 533 85.8C527 57.3 533 28.7 536 14.3L539 0L711 0L709.5 14.3C708 28.7 705 57.3 709.5 85.8C714 114.3 726 142.7 733.5 171.2C741 199.7 744 228.3 739.5 257C735 285.7 723 314.3 721.5 343C720 371.7 729 400.3 729 428.8C729 457.3 720 485.7 715.5 514.2C711 542.7 711 571.3 711 585.7L711 600Z" fill="#543660"></path><path d="M503 600L507.5 585.7C512 571.3 521 542.7 521 514.2C521 485.7 512 457.3 504.5 428.8C497 400.3 491 371.7 495.5 343C500 314.3 515 285.7 525.5 257C536 228.3 542 199.7 536 171.2C530 142.7 512 114.3 506 85.8C500 57.3 506 28.7 509 14.3L512 0L540 0L537 14.3C534 28.7 528 57.3 534 85.8C540 114.3 558 142.7 565.5 171.2C573 199.7 570 228.3 561 257C552 285.7 537 314.3 532.5 343C528 371.7 534 400.3 540 428.8C546 457.3 552 485.7 550.5 514.2C549 542.7 540 571.3 535.5 585.7L531 600Z" fill="#111e35"></path><path d="M413 600L414.5 585.7C416 571.3 419 542.7 417.5 514.2C416 485.7 410 457.3 404 428.8C398 400.3 392 371.7 392 343C392 314.3 398 285.7 405.5 257C413 228.3 422 199.7 417.5 171.2C413 142.7 395 114.3 390.5 85.8C386 57.3 395 28.7 399.5 14.3L404 0L513 0L510 14.3C507 28.7 501 57.3 507 85.8C513 114.3 531 142.7 537 171.2C543 199.7 537 228.3 526.5 257C516 285.7 501 314.3 496.5 343C492 371.7 498 400.3 505.5 428.8C513 457.3 522 485.7 522 514.2C522 542.7 513 571.3 508.5 585.7L504 600Z" fill="#001220"></path><path d="M377 600L375.5 585.7C374 571.3 371 542.7 366.5 514.2C362 485.7 356 457.3 353 428.8C350 400.3 350 371.7 350 343C350 314.3 350 285.7 354.5 257C359 228.3 368 199.7 366.5 171.2C365 142.7 353 114.3 351.5 85.8C350 57.3 359 28.7 363.5 14.3L368 0L405 0L400.5 14.3C396 28.7 387 57.3 391.5 85.8C396 114.3 414 142.7 418.5 171.2C423 199.7 414 228.3 406.5 257C399 285.7 393 314.3 393 343C393 371.7 399 400.3 405 428.8C411 457.3 417 485.7 418.5 514.2C420 542.7 417 571.3 415.5 585.7L414 600Z" fill="#001220"></path><path d="M332 600L330.5 585.7C329 571.3 326 542.7 323 514.2C320 485.7 317 457.3 315.5 428.8C314 400.3 314 371.7 312.5 343C311 314.3 308 285.7 312.5 257C317 228.3 329 199.7 329 171.2C329 142.7 317 114.3 314 85.8C311 57.3 317 28.7 320 14.3L323 0L369 0L364.5 14.3C360 28.7 351 57.3 352.5 85.8C354 114.3 366 142.7 367.5 171.2C369 199.7 360 228.3 355.5 257C351 285.7 351 314.3 351 343C351 371.7 351 400.3 354 428.8C357 457.3 363 485.7 367.5 514.2C372 542.7 375 571.3 376.5 585.7L378 600Z" fill="#111e35"></path><path d="M170 600L164 585.7C158 571.3 146 542.7 141.5 514.2C137 485.7 140 457.3 143 428.8C146 400.3 149 371.7 149 343C149 314.3 146 285.7 146 257C146 228.3 149 199.7 152 171.2C155 142.7 158 114.3 158 85.8C158 57.3 155 28.7 153.5 14.3L152 0L324 0L321 14.3C318 28.7 312 57.3 315 85.8C318 114.3 330 142.7 330 171.2C330 199.7 318 228.3 313.5 257C309 285.7 312 314.3 313.5 343C315 371.7 315 400.3 316.5 428.8C318 457.3 321 485.7 324 514.2C327 542.7 330 571.3 331.5 585.7L333 600Z" fill="#543660"></path><path d="M80 600L77 585.7C74 571.3 68 542.7 68 514.2C68 485.7 74 457.3 75.5 428.8C77 400.3 74 371.7 71 343C68 314.3 65 285.7 63.5 257C62 228.3 62 199.7 63.5 171.2C65 142.7 68 114.3 68 85.8C68 57.3 65 28.7 63.5 14.3L62 0L153 0L154.5 14.3C156 28.7 159 57.3 159 85.8C159 114.3 156 142.7 153 171.2C150 199.7 147 228.3 147 257C147 285.7 150 314.3 150 343C150 371.7 147 400.3 144 428.8C141 457.3 138 485.7 142.5 514.2C147 542.7 159 571.3 165 585.7L171 600Z" fill="#a6486e"></path><path d="M35 600L33.5 585.7C32 571.3 29 542.7 29 514.2C29 485.7 32 457.3 32 428.8C32 400.3 29 371.7 27.5 343C26 314.3 26 285.7 26 257C26 228.3 26 199.7 26 171.2C26 142.7 26 114.3 26 85.8C26 57.3 26 28.7 26 14.3L26 0L63 0L64.5 14.3C66 28.7 69 57.3 69 85.8C69 114.3 66 142.7 64.5 171.2C63 199.7 63 228.3 64.5 257C66 285.7 69 314.3 72 343C75 371.7 78 400.3 76.5 428.8C75 457.3 69 485.7 69 514.2C69 542.7 75 571.3 78 585.7L81 600Z" fill="#e66d5b"></path><path d="M0 600L0 585.7C0 571.3 0 542.7 0 514.2C0 485.7 0 457.3 0 428.8C0 400.3 0 371.7 0 343C0 314.3 0 285.7 0 257C0 228.3 0 199.7 0 171.2C0 142.7 0 114.3 0 85.8C0 57.3 0 28.7 0 14.3L0 0L27 0L27 14.3C27 28.7 27 57.3 27 85.8C27 114.3 27 142.7 27 171.2C27 199.7 27 228.3 27 257C27 285.7 27 314.3 28.5 343C30 371.7 33 400.3 33 428.8C33 457.3 30 485.7 30 514.2C30 542.7 33 571.3 34.5 585.7L36 600Z" fill="#fbae3c"></path></svg>