<svg id="visual" viewBox="0 0 900 600" width="900" height="600" xmlns="http://www.w3.org/2000/svg" xmlns:xlink="http://www.w3.org/1999/xlink" version="1.1"><g><g transform="translate(692 273)"><path d="M6 8.4C-1.6 16.6 -23.6 21.5 -27 15.7C-30.4 9.9 -15.2 -6.6 -4.2 -9C6.8 -11.4 13.6 0.2 6 8.4Z" fill="#c2abf7"></path></g><g transform="translate(859 62)"><path d="M7.8 4.9C3.1 12.6 -12.5 14.4 -15.6 7.6C-18.7 0.9 -9.3 -14.5 -1.6 -15.4C6.2 -16.3 12.4 -2.8 7.8 4.9Z" fill="#c2abf7"></path></g><g transform="translate(378 339)"><path d="M17.4 10.8C10.5 21.9 -15.4 22.9 -21.4 12.2C-27.5 1.5 -13.7 -20.7 -0.8 -21.2C12.1 -21.7 24.2 -0.3 17.4 10.8Z" fill="#c2abf7"></path></g><g transform="translate(248 149)"><path d="M11.9 5C7.2 15 -10.5 15.6 -14.6 6C-18.8 -3.7 -9.4 -23.7 -0.6 -24C8.3 -24.3 16.6 -5 11.9 5Z" fill="#c2abf7"></path></g><g transform="translate(377 139)"><path d="M5.1 2.5C1.7 8.8 -9.4 10.3 -11.5 4.7C-13.6 -0.9 -6.8 -13.6 -1.3 -14.3C4.2 -15.1 8.5 -3.9 5.1 2.5Z" fill="#c2abf7"></path></g><g transform="translate(873 529)"><path d="M8.6 5.2C6.3 8.8 -3.5 8.2 -6.1 4.4C-8.8 0.6 -4.4 -6.5 0.5 -6.2C5.4 -6 10.8 1.7 8.6 5.2Z" fill="#c2abf7"></path></g><g transform="translate(125 149)"><path d="M4.4 2.4C3.5 4 -0.8 3.5 -2.1 1.6C-3.4 -0.3 -1.7 -3.5 0.4 -3.2C2.6 -3 5.2 0.8 4.4 2.4Z" fill="#c2abf7"></path></g><g transform="translate(653 106)"><path d="M13.2 8.4C8.8 15.3 -8.9 15.3 -13.3 8.5C-17.7 1.7 -8.9 -12 0 -12C8.8 -12.1 17.6 1.6 13.2 8.4Z" fill="#c2abf7"></path></g><g transform="translate(423 458)"><path d="M19 9.7C14.6 18.7 -6.1 17 -11.9 7.2C-17.8 -2.6 -8.9 -20.5 1.4 -19.7C11.7 -18.9 23.5 0.7 19 9.7Z" fill="#c2abf7"></path></g><g transform="translate(783 379)"><path d="M10.8 9.4C4.6 17 -16.3 19.2 -20.5 12.8C-24.8 6.4 -12.4 -8.7 -1.9 -9.9C8.5 -11 17 1.9 10.8 9.4Z" fill="#c2abf7"></path></g><g transform="translate(702 529)"><path d="M5 2.6C2.2 7.7 -7.3 8.7 -9.3 4.1C-11.2 -0.5 -5.6 -10.8 -0.9 -11.3C3.9 -11.7 7.8 -2.5 5 2.6Z" fill="#c2abf7"></path></g><g transform="translate(22 368)"><path d="M16.9 9.4C9.5 22.6 -17.4 24.1 -23.5 11.6C-29.6 -0.8 -14.8 -27.2 -1.3 -28C12.1 -28.7 24.3 -3.8 16.9 9.4Z" fill="#c2abf7"></path></g><g transform="translate(76 265)"><path d="M16.4 10.8C12.2 16.9 -6.7 15.8 -11.9 9.3C-17.1 2.7 -8.5 -9.5 0.9 -8.9C10.4 -8.4 20.7 4.8 16.4 10.8Z" fill="#c2abf7"></path></g><g transform="translate(173 405)"><path d="M1.7 0.3C0.5 3.2 -3.5 3.7 -4.2 1.2C-5 -1.4 -2.5 -7.2 -0.5 -7.5C1.5 -7.8 3 -2.6 1.7 0.3Z" fill="#c2abf7"></path></g><g transform="translate(63 507)"><path d="M3.5 1.9C2.7 3.2 -0.8 2.9 -1.8 1.3C-2.9 -0.3 -1.4 -3 0.3 -2.8C2.1 -2.6 4.2 0.5 3.5 1.9Z" fill="#c2abf7"></path></g><g transform="translate(292 576)"><path d="M19.2 9.7C14.2 19.7 -7.8 18.5 -13.8 7.9C-19.9 -2.7 -9.9 -22.7 1.1 -22.1C12.1 -21.4 24.2 -0.2 19.2 9.7Z" fill="#c2abf7"></path></g><g transform="translate(564 404)"><path d="M11.3 5.2C9.5 9.7 -0.7 8 -4 2.7C-7.3 -2.6 -3.6 -11.6 1.5 -10.7C6.6 -9.9 13.1 0.7 11.3 5.2Z" fill="#c2abf7"></path></g><g transform="translate(813 220)"><path d="M8 3.4C5 9.8 -6.5 10.1 -9.2 3.8C-12 -2.4 -6 -15.3 -0.2 -15.4C5.5 -15.5 11 -3 8 3.4Z" fill="#c2abf7"></path></g><g transform="translate(276 13)"><path d="M17.2 9.9C12.8 17.6 -6.8 16.4 -12.2 8.2C-17.6 -0.1 -8.8 -15.3 1 -14.7C10.8 -14.1 21.6 2.3 17.2 9.9Z" fill="#c2abf7"></path></g><g transform="translate(508 69)"><path d="M1.8 2.3C-0.8 5.4 -8 7.1 -9 4.8C-10.1 2.5 -5 -3.8 -1.5 -4.6C2.1 -5.4 4.3 -0.9 1.8 2.3Z" fill="#c2abf7"></path></g><g transform="translate(558 285)"><path d="M10.7 8.4C7 12.6 -7.6 12.7 -11.2 8.5C-14.8 4.3 -7.4 -4.2 -0.1 -4.2C7.2 -4.3 14.4 4.1 10.7 8.4Z" fill="#c2abf7"></path></g><g transform="translate(282 267)"><path d="M12.2 5.5C9.8 11.2 -2.3 9.8 -6 3.3C-9.6 -3.1 -4.8 -14.6 1.2 -13.8C7.3 -13.1 14.6 -0.3 12.2 5.5Z" fill="#c2abf7"></path></g><g transform="translate(570 543)"><path d="M9.2 2.2C6.3 10.4 -5.7 10.3 -8.8 2C-11.8 -6.3 -5.9 -22.9 0.1 -22.8C6.1 -22.8 12.2 -6.1 9.2 2.2Z" fill="#c2abf7"></path></g><g transform="translate(22 85)"><path d="M3.8 2.7C2.5 4.5 -2.7 4.5 -4 2.8C-5.3 1 -2.6 -2.5 0 -2.5C2.6 -2.5 5.2 1 3.8 2.7Z" fill="#c2abf7"></path></g><g transform="translate(158 587)"><path d="M16.7 10.3C13.3 15.5 -3.5 13.7 -8.6 7.5C-13.6 1.3 -6.8 -9.1 1.6 -8.1C10 -7.2 20.1 5.1 16.7 10.3Z" fill="#c2abf7"></path></g><g transform="translate(896 393)"><path d="M8 4.9C6.3 7.5 -1.9 6.7 -4.4 3.7C-6.8 0.6 -3.4 -4.6 0.7 -4.2C4.8 -3.8 9.7 2.3 8 4.9Z" fill="#c2abf7"></path></g><g transform="translate(136 11)"><path d="M7.9 4.1C5.7 8.5 -3.9 8.1 -6.4 3.5C-8.9 -1 -4.5 -9.8 0.3 -9.6C5.1 -9.5 10.2 -0.3 7.9 4.1Z" fill="#c2abf7"></path></g><g transform="translate(290 457)"><path d="M14.8 9.8C10.6 15.9 -7.4 15.3 -12.1 8.8C-16.9 2.4 -8.4 -9.8 0.5 -9.5C9.5 -9.2 19.1 3.7 14.8 9.8Z" fill="#c2abf7"></path></g><g transform="translate(437 584)"><path d="M19.3 10.2C14.8 19.1 -6.3 17.4 -12.2 7.7C-18.2 -2 -9.1 -19.8 1.4 -19C11.9 -18.1 23.9 1.3 19.3 10.2Z" fill="#c2abf7"></path></g><g transform="translate(718 6)"><path d="M5.3 3.9C3.8 5.6 -2.5 5.3 -4.2 3.5C-5.9 1.7 -2.9 -1.7 0.2 -1.5C3.4 -1.4 6.7 2.2 5.3 3.9Z" fill="#c2abf7"></path></g><g transform="translate(436 239)"><path d="M4.7 2.8C1.8 7.6 -7.6 8.7 -9.5 4.5C-11.4 0.2 -5.7 -9.5 -1 -10.1C3.8 -10.6 7.5 -2.1 4.7 2.8Z" fill="#c2abf7"></path></g><g transform="translate(401 6)"><path d="M5.2 4C2 8.4 -8.4 9.7 -10.5 5.8C-12.6 2 -6.3 -7 -1.1 -7.6C4.2 -8.2 8.3 -0.5 5.2 4Z" fill="#c2abf7"></path></g></g></svg>