<svg id="visual" viewBox="0 0 900 600" width="900" height="600" xmlns="http://www.w3.org/2000/svg" xmlns:xlink="http://www.w3.org/1999/xlink" version="1.1"><rect x="0" y="0" width="900" height="600" fill="#001220"></rect><defs><linearGradient id="grad1_0" x1="33.3%" y1="0%" x2="100%" y2="100%"><stop offset="20%" stop-color="#fbae3c" stop-opacity="1"></stop><stop offset="80%" stop-color="#fbae3c" stop-opacity="1"></stop></linearGradient></defs><defs><linearGradient id="grad1_1" x1="33.3%" y1="0%" x2="100%" y2="100%"><stop offset="20%" stop-color="#fbae3c" stop-opacity="1"></stop><stop offset="80%" stop-color="#f48350" stop-opacity="1"></stop></linearGradient></defs><defs><linearGradient id="grad1_2" x1="33.3%" y1="0%" x2="100%" y2="100%"><stop offset="20%" stop-color="#d96162" stop-opacity="1"></stop><stop offset="80%" stop-color="#f48350" stop-opacity="1"></stop></linearGradient></defs><defs><linearGradient id="grad1_3" x1="33.3%" y1="0%" x2="100%" y2="100%"><stop offset="20%" stop-color="#d96162" stop-opacity="1"></stop><stop offset="80%" stop-color="#af4b6d" stop-opacity="1"></stop></linearGradient></defs><defs><linearGradient id="grad1_4" x1="33.3%" y1="0%" x2="100%" y2="100%"><stop offset="20%" stop-color="#7c3e6b" stop-opacity="1"></stop><stop offset="80%" stop-color="#af4b6d" stop-opacity="1"></stop></linearGradient></defs><defs><linearGradient id="grad1_5" x1="33.3%" y1="0%" x2="100%" y2="100%"><stop offset="20%" stop-color="#7c3e6b" stop-opacity="1"></stop><stop offset="80%" stop-color="#49335c" stop-opacity="1"></stop></linearGradient></defs><defs><linearGradient id="grad1_6" x1="33.3%" y1="0%" x2="100%" y2="100%"><stop offset="20%" stop-color="#1d2540" stop-opacity="1"></stop><stop offset="80%" stop-color="#49335c" stop-opacity="1"></stop></linearGradient></defs><defs><linearGradient id="grad1_7" x1="33.3%" y1="0%" x2="100%" y2="100%"><stop offset="20%" stop-color="#1d2540" stop-opacity="1"></stop><stop offset="80%" stop-color="#001220" stop-opacity="1"></stop></linearGradient></defs><defs><linearGradient id="grad2_0" x1="0%" y1="0%" x2="66.7%" y2="100%"><stop offset="20%" stop-color="#fbae3c" stop-opacity="1"></stop><stop offset="80%" stop-color="#fbae3c" stop-opacity="1"></stop></linearGradient></defs><defs><linearGradient id="grad2_1" x1="0%" y1="0%" x2="66.7%" y2="100%"><stop offset="20%" stop-color="#f48350" stop-opacity="1"></stop><stop offset="80%" stop-color="#fbae3c" stop-opacity="1"></stop></linearGradient></defs><defs><linearGradient id="grad2_2" x1="0%" y1="0%" x2="66.7%" y2="100%"><stop offset="20%" stop-color="#f48350" stop-opacity="1"></stop><stop offset="80%" stop-color="#d96162" stop-opacity="1"></stop></linearGradient></defs><defs><linearGradient id="grad2_3" x1="0%" y1="0%" x2="66.7%" y2="100%"><stop offset="20%" stop-color="#af4b6d" stop-opacity="1"></stop><stop offset="80%" stop-color="#d96162" stop-opacity="1"></stop></linearGradient></defs><defs><linearGradient id="grad2_4" x1="0%" y1="0%" x2="66.7%" y2="100%"><stop offset="20%" stop-color="#af4b6d" stop-opacity="1"></stop><stop offset="80%" stop-color="#7c3e6b" stop-opacity="1"></stop></linearGradient></defs><defs><linearGradient id="grad2_5" x1="0%" y1="0%" x2="66.7%" y2="100%"><stop offset="20%" stop-color="#49335c" stop-opacity="1"></stop><stop offset="80%" stop-color="#7c3e6b" stop-opacity="1"></stop></linearGradient></defs><defs><linearGradient id="grad2_6" x1="0%" y1="0%" x2="66.7%" y2="100%"><stop offset="20%" stop-color="#49335c" stop-opacity="1"></stop><stop offset="80%" stop-color="#1d2540" stop-opacity="1"></stop></linearGradient></defs><defs><linearGradient id="grad2_7" x1="0%" y1="0%" x2="66.7%" y2="100%"><stop offset="20%" stop-color="#001220" stop-opacity="1"></stop><stop offset="80%" stop-color="#1d2540" stop-opacity="1"></stop></linearGradient></defs><g transform="translate(900, 0)"><path d="M0 351.5C-53.1 328.4 -106.2 305.3 -161 278.9C-215.8 252.5 -272.4 222.8 -304.4 175.8C-336.5 128.8 -344 64.4 -351.5 0L0 0Z" fill="#0c1c30"></path><path d="M0 307.6C-46.5 287.4 -92.9 267.1 -140.9 244C-188.8 220.9 -238.3 194.9 -266.4 153.8C-294.4 112.7 -301 56.3 -307.6 0L0 0Z" fill="#312c4f"></path><path d="M0 263.7C-39.8 246.3 -79.6 228.9 -120.7 209.1C-161.9 189.3 -204.3 167.1 -228.3 131.8C-252.4 96.6 -258 48.3 -263.7 0L0 0Z" fill="#623965"></path><path d="M0 219.7C-33.2 205.3 -66.4 190.8 -100.6 174.3C-134.9 157.8 -170.2 139.2 -190.3 109.9C-210.3 80.5 -215 40.2 -219.7 0L0 0Z" fill="#96446e"></path><path d="M0 175.8C-26.5 164.2 -53.1 152.6 -80.5 139.4C-107.9 126.2 -136.2 111.4 -152.2 87.9C-168.2 64.4 -172 32.2 -175.8 0L0 0Z" fill="#c55469"></path><path d="M0 131.8C-19.9 123.2 -39.8 114.5 -60.4 104.6C-80.9 94.7 -102.1 83.5 -114.2 65.9C-126.2 48.3 -129 24.1 -131.8 0L0 0Z" fill="#e9705a"></path><path d="M0 87.9C-13.3 82.1 -26.5 76.3 -40.2 69.7C-54 63.1 -68.1 55.7 -76.1 43.9C-84.1 32.2 -86 16.1 -87.9 0L0 0Z" fill="#fa9845"></path><path d="M0 43.9C-6.6 41.1 -13.3 38.2 -20.1 34.9C-27 31.6 -34 27.8 -38.1 22C-42.1 16.1 -43 8 -43.9 0L0 0Z" fill="#fbae3c"></path></g><g transform="translate(0, 600)"><path d="M0 -351.5C54.2 -330.2 108.3 -309 163 -282.3C217.7 -255.7 272.9 -223.7 304.4 -175.8C336 -127.8 343.7 -63.9 351.5 0L0 0Z" fill="#0c1c30"></path><path d="M0 -307.6C47.4 -289 94.8 -270.3 142.6 -247C190.5 -223.7 238.8 -195.8 266.4 -153.8C294 -111.8 300.8 -55.9 307.6 0L0 0Z" fill="#312c4f"></path><path d="M0 -263.7C40.6 -247.7 81.2 -231.7 122.2 -211.7C163.3 -191.8 204.7 -167.8 228.3 -131.8C252 -95.9 257.8 -47.9 263.7 0L0 0Z" fill="#623965"></path><path d="M0 -219.7C33.8 -206.4 67.7 -193.1 101.9 -176.5C136.1 -159.8 170.6 -139.8 190.3 -109.9C210 -79.9 214.8 -39.9 219.7 0L0 0Z" fill="#96446e"></path><path d="M0 -175.8C27.1 -165.1 54.2 -154.5 81.5 -141.2C108.8 -127.8 136.5 -111.9 152.2 -87.9C168 -63.9 171.9 -32 175.8 0L0 0Z" fill="#c55469"></path><path d="M0 -131.8C20.3 -123.8 40.6 -115.9 61.1 -105.9C81.6 -95.9 102.3 -83.9 114.2 -65.9C126 -47.9 128.9 -24 131.8 0L0 0Z" fill="#e9705a"></path><path d="M0 -87.9C13.5 -82.6 27.1 -77.2 40.7 -70.6C54.4 -63.9 68.2 -55.9 76.1 -43.9C84 -32 85.9 -16 87.9 0L0 0Z" fill="#fa9845"></path><path d="M0 -43.9C6.8 -41.3 13.5 -38.6 20.4 -35.3C27.2 -32 34.1 -28 38.1 -22C42 -16 43 -8 43.9 0L0 0Z" fill="#fbae3c"></path></g></svg>