<svg id="visual" viewBox="0 0 900 600" width="900" height="600" xmlns="http://www.w3.org/2000/svg" xmlns:xlink="http://www.w3.org/1999/xlink" version="1.1"><path d="M0 25L25 26C50 27 100 29 150 30C200 31 250 31 300 30C350 29 400 27 450 27C500 27 550 29 600 29C650 29 700 27 750 26C800 25 850 25 875 25L900 25L900 0L875 0C850 0 800 0 750 0C700 0 650 0 600 0C550 0 500 0 450 0C400 0 350 0 300 0C250 0 200 0 150 0C100 0 50 0 25 0L0 0Z" fill="#fbae3c"></path><path d="M0 73L25 76C50 79 100 85 150 87C200 89 250 87 300 86C350 85 400 85 450 84C500 83 550 81 600 81C650 81 700 83 750 84C800 85 850 85 875 85L900 85L900 23L875 23C850 23 800 23 750 24C700 25 650 27 600 27C550 27 500 25 450 25C400 25 350 27 300 28C250 29 200 29 150 28C100 27 50 25 25 24L0 23Z" fill="#f99248"></path><path d="M0 91L25 94C50 97 100 103 150 106C200 109 250 109 300 109C350 109 400 109 450 107C500 105 550 101 600 100C650 99 700 101 750 102C800 103 850 103 875 103L900 103L900 83L875 83C850 83 800 83 750 82C700 81 650 79 600 79C550 79 500 81 450 82C400 83 350 83 300 84C250 85 200 87 150 85C100 83 50 77 25 74L0 71Z" fill="#ee7855"></path><path d="M0 175L25 174C50 173 100 171 150 173C200 175 250 181 300 184C350 187 400 187 450 185C500 183 550 179 600 174C650 169 700 163 750 163C800 163 850 169 875 172L900 175L900 101L875 101C850 101 800 101 750 100C700 99 650 97 600 98C550 99 500 103 450 105C400 107 350 107 300 107C250 107 200 107 150 104C100 101 50 95 25 92L0 89Z" fill="#dc6361"></path><path d="M0 199L25 198C50 197 100 195 150 197C200 199 250 205 300 207C350 209 400 207 450 205C500 203 550 201 600 196C650 191 700 183 750 182C800 181 850 187 875 190L900 193L900 173L875 170C850 167 800 161 750 161C700 161 650 167 600 172C550 177 500 181 450 183C400 185 350 185 300 182C250 179 200 173 150 171C100 169 50 171 25 172L0 173Z" fill="#c4536a"></path><path d="M0 289L25 290C50 291 100 293 150 298C200 303 250 311 300 312C350 313 400 307 450 308C500 309 550 317 600 319C650 321 700 317 750 312C800 307 850 301 875 298L900 295L900 191L875 188C850 185 800 179 750 180C700 181 650 189 600 194C550 199 500 201 450 203C400 205 350 207 300 205C250 203 200 197 150 195C100 193 50 195 25 196L0 197Z" fill="#a6486e"></path><path d="M0 331L25 331C50 331 100 331 150 335C200 339 250 347 300 349C350 351 400 347 450 347C500 347 550 351 600 353C650 355 700 355 750 350C800 345 850 335 875 330L900 325L900 293L875 296C850 299 800 305 750 310C700 315 650 319 600 317C550 315 500 307 450 306C400 305 350 311 300 310C250 309 200 301 150 296C100 291 50 289 25 288L0 287Z" fill="#85406d"></path><path d="M0 355L25 357C50 359 100 363 150 367C200 371 250 375 300 376C350 377 400 375 450 377C500 379 550 385 600 387C650 389 700 387 750 381C800 375 850 365 875 360L900 355L900 323L875 328C850 333 800 343 750 348C700 353 650 353 600 351C550 349 500 345 450 345C400 345 350 349 300 347C250 345 200 337 150 333C100 329 50 329 25 329L0 329Z" fill="#643966"></path><path d="M0 487L25 486C50 485 100 483 150 483C200 483 250 485 300 490C350 495 400 503 450 504C500 505 550 499 600 495C650 491 700 489 750 489C800 489 850 491 875 492L900 493L900 353L875 358C850 363 800 373 750 379C700 385 650 387 600 385C550 383 500 377 450 375C400 373 350 375 300 374C250 373 200 369 150 365C100 361 50 357 25 355L0 353Z" fill="#44325a"></path><path d="M0 541L25 539C50 537 100 533 150 533C200 533 250 537 300 540C350 543 400 545 450 545C500 545 550 543 600 540C650 537 700 533 750 531C800 529 850 529 875 529L900 529L900 491L875 490C850 489 800 487 750 487C700 487 650 489 600 493C550 497 500 503 450 502C400 501 350 493 300 488C250 483 200 481 150 481C100 481 50 483 25 484L0 485Z" fill="#282949"></path><path d="M0 577L25 576C50 575 100 573 150 573C200 573 250 575 300 576C350 577 400 577 450 577C500 577 550 577 600 576C650 575 700 573 750 573C800 573 850 575 875 576L900 577L900 527L875 527C850 527 800 527 750 529C700 531 650 535 600 538C550 541 500 543 450 543C400 543 350 541 300 538C250 535 200 531 150 531C100 531 50 535 25 537L0 539Z" fill="#111e35"></path><path d="M0 601L25 601C50 601 100 601 150 601C200 601 250 601 300 601C350 601 400 601 450 601C500 601 550 601 600 601C650 601 700 601 750 601C800 601 850 601 875 601L900 601L900 575L875 574C850 573 800 571 750 571C700 571 650 573 600 574C550 575 500 575 450 575C400 575 350 575 300 574C250 573 200 571 150 571C100 571 50 573 25 574L0 575Z" fill="#001220"></path></svg>