<svg id="visual" viewBox="0 0 900 600" width="900" height="600" xmlns="http://www.w3.org/2000/svg" xmlns:xlink="http://www.w3.org/1999/xlink" version="1.1"><rect x="0" y="0" width="900" height="600" fill="#ffffff"></rect><defs><linearGradient id="grad1_0" x1="33.3%" y1="0%" x2="100%" y2="100%"><stop offset="20%" stop-color="#f7caca" stop-opacity="1"></stop><stop offset="80%" stop-color="#f7caca" stop-opacity="1"></stop></linearGradient></defs><defs><linearGradient id="grad1_1" x1="33.3%" y1="0%" x2="100%" y2="100%"><stop offset="20%" stop-color="#f7caca" stop-opacity="1"></stop><stop offset="80%" stop-color="#f9d2d1" stop-opacity="1"></stop></linearGradient></defs><defs><linearGradient id="grad1_2" x1="33.3%" y1="0%" x2="100%" y2="100%"><stop offset="20%" stop-color="#fad9d9" stop-opacity="1"></stop><stop offset="80%" stop-color="#f9d2d1" stop-opacity="1"></stop></linearGradient></defs><defs><linearGradient id="grad1_3" x1="33.3%" y1="0%" x2="100%" y2="100%"><stop offset="20%" stop-color="#fad9d9" stop-opacity="1"></stop><stop offset="80%" stop-color="#fbe1e0" stop-opacity="1"></stop></linearGradient></defs><defs><linearGradient id="grad1_4" x1="33.3%" y1="0%" x2="100%" y2="100%"><stop offset="20%" stop-color="#fce8e8" stop-opacity="1"></stop><stop offset="80%" stop-color="#fbe1e0" stop-opacity="1"></stop></linearGradient></defs><defs><linearGradient id="grad1_5" x1="33.3%" y1="0%" x2="100%" y2="100%"><stop offset="20%" stop-color="#fce8e8" stop-opacity="1"></stop><stop offset="80%" stop-color="#fdf0f0" stop-opacity="1"></stop></linearGradient></defs><defs><linearGradient id="grad1_6" x1="33.3%" y1="0%" x2="100%" y2="100%"><stop offset="20%" stop-color="#fef7f7" stop-opacity="1"></stop><stop offset="80%" stop-color="#fdf0f0" stop-opacity="1"></stop></linearGradient></defs><defs><linearGradient id="grad1_7" x1="33.3%" y1="0%" x2="100%" y2="100%"><stop offset="20%" stop-color="#fef7f7" stop-opacity="1"></stop><stop offset="80%" stop-color="#ffffff" stop-opacity="1"></stop></linearGradient></defs><defs><linearGradient id="grad2_0" x1="0%" y1="0%" x2="66.7%" y2="100%"><stop offset="20%" stop-color="#f7caca" stop-opacity="1"></stop><stop offset="80%" stop-color="#f7caca" stop-opacity="1"></stop></linearGradient></defs><defs><linearGradient id="grad2_1" x1="0%" y1="0%" x2="66.7%" y2="100%"><stop offset="20%" stop-color="#f9d2d1" stop-opacity="1"></stop><stop offset="80%" stop-color="#f7caca" stop-opacity="1"></stop></linearGradient></defs><defs><linearGradient id="grad2_2" x1="0%" y1="0%" x2="66.7%" y2="100%"><stop offset="20%" stop-color="#f9d2d1" stop-opacity="1"></stop><stop offset="80%" stop-color="#fad9d9" stop-opacity="1"></stop></linearGradient></defs><defs><linearGradient id="grad2_3" x1="0%" y1="0%" x2="66.7%" y2="100%"><stop offset="20%" stop-color="#fbe1e0" stop-opacity="1"></stop><stop offset="80%" stop-color="#fad9d9" stop-opacity="1"></stop></linearGradient></defs><defs><linearGradient id="grad2_4" x1="0%" y1="0%" x2="66.7%" y2="100%"><stop offset="20%" stop-color="#fbe1e0" stop-opacity="1"></stop><stop offset="80%" stop-color="#fce8e8" stop-opacity="1"></stop></linearGradient></defs><defs><linearGradient id="grad2_5" x1="0%" y1="0%" x2="66.7%" y2="100%"><stop offset="20%" stop-color="#fdf0f0" stop-opacity="1"></stop><stop offset="80%" stop-color="#fce8e8" stop-opacity="1"></stop></linearGradient></defs><defs><linearGradient id="grad2_6" x1="0%" y1="0%" x2="66.7%" y2="100%"><stop offset="20%" stop-color="#fdf0f0" stop-opacity="1"></stop><stop offset="80%" stop-color="#fef7f7" stop-opacity="1"></stop></linearGradient></defs><defs><linearGradient id="grad2_7" x1="0%" y1="0%" x2="66.7%" y2="100%"><stop offset="20%" stop-color="#ffffff" stop-opacity="1"></stop><stop offset="80%" stop-color="#fef7f7" stop-opacity="1"></stop></linearGradient></defs><g transform="translate(900, 0)"><path d="M0 351.5C-45.7 342.5 -91.3 333.5 -130.1 314.1C-168.9 294.7 -200.7 265 -234.8 234.8C-268.8 204.5 -305 173.7 -324.8 134.5C-344.6 95.3 -348.1 47.7 -351.5 0L0 0Z" fill="#fffbfb"></path><path d="M0 307.6C-40 299.7 -79.9 291.8 -113.8 274.9C-147.8 257.9 -175.6 231.9 -205.4 205.4C-235.2 178.9 -266.8 152 -284.2 117.7C-301.5 83.4 -304.6 41.7 -307.6 0L0 0Z" fill="#fef4f3"></path><path d="M0 263.7C-34.3 256.9 -68.5 250.1 -97.6 235.6C-126.7 221.1 -150.6 198.8 -176.1 176.1C-201.6 153.4 -228.7 130.3 -243.6 100.9C-258.5 71.5 -261.1 35.7 -263.7 0L0 0Z" fill="#fdecec"></path><path d="M0 219.7C-28.5 214.1 -57.1 208.4 -81.3 196.3C-105.5 184.2 -125.5 165.6 -146.7 146.7C-168 127.8 -190.6 108.6 -203 84.1C-215.4 59.6 -217.5 29.8 -219.7 0L0 0Z" fill="#fce4e4"></path><path d="M0 175.8C-22.8 171.3 -45.7 166.7 -65.1 157.1C-84.4 147.4 -100.4 132.5 -117.4 117.4C-134.4 102.3 -152.5 86.9 -162.4 67.3C-172.3 47.7 -174 23.8 -175.8 0L0 0Z" fill="#fbdddd"></path><path d="M0 131.8C-17.1 128.4 -34.3 125.1 -48.8 117.8C-63.3 110.5 -75.3 99.4 -88 88C-100.8 76.7 -114.4 65.2 -121.8 50.4C-129.2 35.7 -130.5 17.9 -131.8 0L0 0Z" fill="#f9d5d5"></path><path d="M0 87.9C-11.4 85.6 -22.8 83.4 -32.5 78.5C-42.2 73.7 -50.2 66.3 -58.7 58.7C-67.2 51.1 -76.2 43.4 -81.2 33.6C-86.2 23.8 -87 11.9 -87.9 0L0 0Z" fill="#f8cece"></path><path d="M0 43.9C-5.7 42.8 -11.4 41.7 -16.3 39.3C-21.1 36.8 -25.1 33.1 -29.3 29.3C-33.6 25.6 -38.1 21.7 -40.6 16.8C-43.1 11.9 -43.5 6 -43.9 0L0 0Z" fill="#f7caca"></path></g><g transform="translate(0, 600)"><path d="M0 -351.5C47.7 -348.2 95.3 -344.8 134.5 -324.8C173.7 -304.7 204.5 -267.9 233.3 -233.3C262.2 -198.8 289.2 -166.3 308.6 -127.8C328 -89.3 339.8 -44.6 351.5 0L0 0Z" fill="#fffbfb"></path><path d="M0 -307.6C41.7 -304.7 83.4 -301.7 117.7 -284.2C152 -266.6 178.9 -234.4 204.2 -204.2C229.4 -173.9 253 -145.6 270 -111.8C287 -78.1 297.3 -39.1 307.6 0L0 0Z" fill="#fef4f3"></path><path d="M0 -263.7C35.7 -261.1 71.5 -258.6 100.9 -243.6C130.3 -228.5 153.4 -201 175 -175C196.7 -149.1 216.9 -124.8 231.4 -95.9C246 -67 254.8 -33.5 263.7 0L0 0Z" fill="#fdecec"></path><path d="M0 -219.7C29.8 -217.6 59.6 -215.5 84.1 -203C108.6 -190.4 127.8 -167.5 145.8 -145.8C163.9 -124.2 180.7 -104 192.9 -79.9C205 -55.8 212.3 -27.9 219.7 0L0 0Z" fill="#fce4e4"></path><path d="M0 -175.8C23.8 -174.1 47.7 -172.4 67.3 -162.4C86.9 -152.4 102.2 -134 116.7 -116.7C131.1 -99.4 144.6 -83.2 154.3 -63.9C164 -44.6 169.9 -22.3 175.8 0L0 0Z" fill="#fbdddd"></path><path d="M0 -131.8C17.9 -130.6 35.7 -129.3 50.4 -121.8C65.2 -114.3 76.7 -100.5 87.5 -87.5C98.3 -74.5 108.4 -62.4 115.7 -47.9C123 -33.5 127.4 -16.7 131.8 0L0 0Z" fill="#f9d5d5"></path><path d="M0 -87.9C11.9 -87 23.8 -86.2 33.6 -81.2C43.4 -76.2 51.1 -67 58.3 -58.3C65.6 -49.7 72.3 -41.6 77.1 -32C82 -22.3 84.9 -11.2 87.9 0L0 0Z" fill="#f8cece"></path><path d="M0 -43.9C6 -43.5 11.9 -43.1 16.8 -40.6C21.7 -38.1 25.6 -33.5 29.2 -29.2C32.8 -24.8 36.1 -20.8 38.6 -16C41 -11.2 42.5 -5.6 43.9 0L0 0Z" fill="#f7caca"></path></g></svg>