<svg id="visual" viewBox="0 0 900 600" width="900" height="600" xmlns="http://www.w3.org/2000/svg" xmlns:xlink="http://www.w3.org/1999/xlink" version="1.1"><rect x="0" y="0" width="900" height="600" fill="#001220"></rect><defs><linearGradient id="grad1_0" x1="33.3%" y1="100%" x2="100%" y2="0%"><stop offset="20%" stop-color="#fbae3c" stop-opacity="1"></stop><stop offset="80%" stop-color="#fbae3c" stop-opacity="1"></stop></linearGradient></defs><defs><linearGradient id="grad1_1" x1="33.3%" y1="100%" x2="100%" y2="0%"><stop offset="20%" stop-color="#fbae3c" stop-opacity="1"></stop><stop offset="80%" stop-color="#f48350" stop-opacity="1"></stop></linearGradient></defs><defs><linearGradient id="grad1_2" x1="33.3%" y1="100%" x2="100%" y2="0%"><stop offset="20%" stop-color="#d96162" stop-opacity="1"></stop><stop offset="80%" stop-color="#f48350" stop-opacity="1"></stop></linearGradient></defs><defs><linearGradient id="grad1_3" x1="33.3%" y1="100%" x2="100%" y2="0%"><stop offset="20%" stop-color="#d96162" stop-opacity="1"></stop><stop offset="80%" stop-color="#af4b6d" stop-opacity="1"></stop></linearGradient></defs><defs><linearGradient id="grad1_4" x1="33.3%" y1="100%" x2="100%" y2="0%"><stop offset="20%" stop-color="#7c3e6b" stop-opacity="1"></stop><stop offset="80%" stop-color="#af4b6d" stop-opacity="1"></stop></linearGradient></defs><defs><linearGradient id="grad1_5" x1="33.3%" y1="100%" x2="100%" y2="0%"><stop offset="20%" stop-color="#7c3e6b" stop-opacity="1"></stop><stop offset="80%" stop-color="#49335c" stop-opacity="1"></stop></linearGradient></defs><defs><linearGradient id="grad1_6" x1="33.3%" y1="100%" x2="100%" y2="0%"><stop offset="20%" stop-color="#1d2540" stop-opacity="1"></stop><stop offset="80%" stop-color="#49335c" stop-opacity="1"></stop></linearGradient></defs><defs><linearGradient id="grad1_7" x1="33.3%" y1="100%" x2="100%" y2="0%"><stop offset="20%" stop-color="#1d2540" stop-opacity="1"></stop><stop offset="80%" stop-color="#001220" stop-opacity="1"></stop></linearGradient></defs><defs><linearGradient id="grad2_0" x1="0%" y1="100%" x2="66.7%" y2="0%"><stop offset="20%" stop-color="#fbae3c" stop-opacity="1"></stop><stop offset="80%" stop-color="#fbae3c" stop-opacity="1"></stop></linearGradient></defs><defs><linearGradient id="grad2_1" x1="0%" y1="100%" x2="66.7%" y2="0%"><stop offset="20%" stop-color="#f48350" stop-opacity="1"></stop><stop offset="80%" stop-color="#fbae3c" stop-opacity="1"></stop></linearGradient></defs><defs><linearGradient id="grad2_2" x1="0%" y1="100%" x2="66.7%" y2="0%"><stop offset="20%" stop-color="#f48350" stop-opacity="1"></stop><stop offset="80%" stop-color="#d96162" stop-opacity="1"></stop></linearGradient></defs><defs><linearGradient id="grad2_3" x1="0%" y1="100%" x2="66.7%" y2="0%"><stop offset="20%" stop-color="#af4b6d" stop-opacity="1"></stop><stop offset="80%" stop-color="#d96162" stop-opacity="1"></stop></linearGradient></defs><defs><linearGradient id="grad2_4" x1="0%" y1="100%" x2="66.7%" y2="0%"><stop offset="20%" stop-color="#af4b6d" stop-opacity="1"></stop><stop offset="80%" stop-color="#7c3e6b" stop-opacity="1"></stop></linearGradient></defs><defs><linearGradient id="grad2_5" x1="0%" y1="100%" x2="66.7%" y2="0%"><stop offset="20%" stop-color="#49335c" stop-opacity="1"></stop><stop offset="80%" stop-color="#7c3e6b" stop-opacity="1"></stop></linearGradient></defs><defs><linearGradient id="grad2_6" x1="0%" y1="100%" x2="66.7%" y2="0%"><stop offset="20%" stop-color="#49335c" stop-opacity="1"></stop><stop offset="80%" stop-color="#1d2540" stop-opacity="1"></stop></linearGradient></defs><defs><linearGradient id="grad2_7" x1="0%" y1="100%" x2="66.7%" y2="0%"><stop offset="20%" stop-color="#001220" stop-opacity="1"></stop><stop offset="80%" stop-color="#1d2540" stop-opacity="1"></stop></linearGradient></defs><g transform="translate(900, 600)"><path d="M-351.5 0C-328.4 -53.1 -305.3 -106.2 -278.9 -161C-252.5 -215.8 -222.8 -272.4 -175.8 -304.4C-128.8 -336.5 -64.4 -344 0 -351.5L0 0Z" fill="#0c1c30"></path><path d="M-307.6 0C-287.4 -46.5 -267.1 -92.9 -244 -140.9C-220.9 -188.8 -194.9 -238.3 -153.8 -266.4C-112.7 -294.4 -56.3 -301 0 -307.6L0 0Z" fill="#312c4f"></path><path d="M-263.7 0C-246.3 -39.8 -228.9 -79.6 -209.1 -120.8C-189.3 -161.9 -167.1 -204.3 -131.8 -228.3C-96.6 -252.4 -48.3 -258 0 -263.7L0 0Z" fill="#623965"></path><path d="M-219.7 0C-205.3 -33.2 -190.8 -66.4 -174.3 -100.6C-157.8 -134.9 -139.2 -170.2 -109.9 -190.3C-80.5 -210.3 -40.2 -215 0 -219.7L0 0Z" fill="#96446e"></path><path d="M-175.8 0C-164.2 -26.5 -152.6 -53.1 -139.4 -80.5C-126.2 -107.9 -111.4 -136.2 -87.9 -152.2C-64.4 -168.2 -32.2 -172 0 -175.8L0 0Z" fill="#c55469"></path><path d="M-131.8 0C-123.2 -19.9 -114.5 -39.8 -104.6 -60.4C-94.7 -80.9 -83.5 -102.1 -65.9 -114.2C-48.3 -126.2 -24.1 -129 0 -131.8L0 0Z" fill="#e9705a"></path><path d="M-87.9 0C-82.1 -13.3 -76.3 -26.5 -69.7 -40.3C-63.1 -54 -55.7 -68.1 -43.9 -76.1C-32.2 -84.1 -16.1 -86 0 -87.9L0 0Z" fill="#fa9845"></path><path d="M-43.9 0C-41.1 -6.6 -38.2 -13.3 -34.9 -20.1C-31.6 -27 -27.8 -34 -22 -38.1C-16.1 -42.1 -8 -43 0 -43.9L0 0Z" fill="#fbae3c"></path></g><g transform="translate(0, 0)"><path d="M351.5 0C330.2 54.2 309 108.3 282.3 163C255.7 217.7 223.7 272.9 175.8 304.4C127.8 336 63.9 343.7 0 351.5L0 0Z" fill="#0c1c30"></path><path d="M307.6 0C289 47.4 270.3 94.8 247 142.6C223.7 190.5 195.8 238.8 153.8 266.4C111.8 294 55.9 300.8 0 307.6L0 0Z" fill="#312c4f"></path><path d="M263.7 0C247.7 40.6 231.7 81.2 211.7 122.2C191.8 163.3 167.8 204.7 131.8 228.3C95.9 252 47.9 257.8 0 263.7L0 0Z" fill="#623965"></path><path d="M219.7 0C206.4 33.8 193.1 67.7 176.5 101.9C159.8 136.1 139.8 170.6 109.9 190.3C79.9 210 39.9 214.8 0 219.7L0 0Z" fill="#96446e"></path><path d="M175.8 0C165.1 27.1 154.5 54.2 141.2 81.5C127.8 108.8 111.9 136.5 87.9 152.2C63.9 168 32 171.9 0 175.8L0 0Z" fill="#c55469"></path><path d="M131.8 0C123.8 20.3 115.9 40.6 105.9 61.1C95.9 81.6 83.9 102.3 65.9 114.2C47.9 126 24 128.9 0 131.8L0 0Z" fill="#e9705a"></path><path d="M87.9 0C82.6 13.5 77.2 27.1 70.6 40.7C63.9 54.4 55.9 68.2 43.9 76.1C32 84 16 85.9 0 87.9L0 0Z" fill="#fa9845"></path><path d="M43.9 0C41.3 6.8 38.6 13.5 35.3 20.4C32 27.2 28 34.1 22 38.1C16 42 8 43 0 43.9L0 0Z" fill="#fbae3c"></path></g></svg>