<svg id="visual" viewBox="0 0 900 600" width="900" height="600" xmlns="http://www.w3.org/2000/svg" xmlns:xlink="http://www.w3.org/1999/xlink" version="1.1"><path d="M0 426L13.7 433C27.3 440 54.7 454 82 453.8C109.3 453.7 136.7 439.3 163.8 433.5C191 427.7 218 430.3 245.2 436.7C272.3 443 299.7 453 327 457.3C354.3 461.7 381.7 460.3 409 457.2C436.3 454 463.7 449 491 448.7C518.3 448.3 545.7 452.7 573 456.5C600.3 460.3 627.7 463.7 654.8 457C682 450.3 709 433.7 736.2 429C763.3 424.3 790.7 431.7 818 433.3C845.3 435 872.7 431 886.3 429L900 427L900 601L886.3 601C872.7 601 845.3 601 818 601C790.7 601 763.3 601 736.2 601C709 601 682 601 654.8 601C627.7 601 600.3 601 573 601C545.7 601 518.3 601 491 601C463.7 601 436.3 601 409 601C381.7 601 354.3 601 327 601C299.7 601 272.3 601 245.2 601C218 601 191 601 163.8 601C136.7 601 109.3 601 82 601C54.7 601 27.3 601 13.7 601L0 601Z" fill="#8c5ac7"></path><path d="M0 466L13.7 464.7C27.3 463.3 54.7 460.7 82 464.8C109.3 469 136.7 480 163.8 480C191 480 218 469 245.2 461.7C272.3 454.3 299.7 450.7 327 456.5C354.3 462.3 381.7 477.7 409 479.2C436.3 480.7 463.7 468.3 491 466.3C518.3 464.3 545.7 472.7 573 479.5C600.3 486.3 627.7 491.7 654.8 491.5C682 491.3 709 485.7 736.2 479.2C763.3 472.7 790.7 465.3 818 463.3C845.3 461.3 872.7 464.7 886.3 466.3L900 468L900 601L886.3 601C872.7 601 845.3 601 818 601C790.7 601 763.3 601 736.2 601C709 601 682 601 654.8 601C627.7 601 600.3 601 573 601C545.7 601 518.3 601 491 601C463.7 601 436.3 601 409 601C381.7 601 354.3 601 327 601C299.7 601 272.3 601 245.2 601C218 601 191 601 163.8 601C136.7 601 109.3 601 82 601C54.7 601 27.3 601 13.7 601L0 601Z" fill="#9377d3"></path><path d="M0 504L13.7 507C27.3 510 54.7 516 82 512C109.3 508 136.7 494 163.8 493.5C191 493 218 506 245.2 510.2C272.3 514.3 299.7 509.7 327 503.7C354.3 497.7 381.7 490.3 409 491.2C436.3 492 463.7 501 491 505.5C518.3 510 545.7 510 573 509.7C600.3 509.3 627.7 508.7 654.8 510.2C682 511.7 709 515.3 736.2 513.8C763.3 512.3 790.7 505.7 818 501.7C845.3 497.7 872.7 496.3 886.3 495.7L900 495L900 601L886.3 601C872.7 601 845.3 601 818 601C790.7 601 763.3 601 736.2 601C709 601 682 601 654.8 601C627.7 601 600.3 601 573 601C545.7 601 518.3 601 491 601C463.7 601 436.3 601 409 601C381.7 601 354.3 601 327 601C299.7 601 272.3 601 245.2 601C218 601 191 601 163.8 601C136.7 601 109.3 601 82 601C54.7 601 27.3 601 13.7 601L0 601Z" fill="#9e91dc"></path><path d="M0 539L13.7 540.2C27.3 541.3 54.7 543.7 82 540.5C109.3 537.3 136.7 528.7 163.8 525C191 521.3 218 522.7 245.2 521C272.3 519.3 299.7 514.7 327 518.5C354.3 522.3 381.7 534.7 409 535.5C436.3 536.3 463.7 525.7 491 524.7C518.3 523.7 545.7 532.3 573 537.7C600.3 543 627.7 545 654.8 542.5C682 540 709 533 736.2 528.8C763.3 524.7 790.7 523.3 818 522.8C845.3 522.3 872.7 522.7 886.3 522.8L900 523L900 601L886.3 601C872.7 601 845.3 601 818 601C790.7 601 763.3 601 736.2 601C709 601 682 601 654.8 601C627.7 601 600.3 601 573 601C545.7 601 518.3 601 491 601C463.7 601 436.3 601 409 601C381.7 601 354.3 601 327 601C299.7 601 272.3 601 245.2 601C218 601 191 601 163.8 601C136.7 601 109.3 601 82 601C54.7 601 27.3 601 13.7 601L0 601Z" fill="#adaae2"></path><path d="M0 561L13.7 558.2C27.3 555.3 54.7 549.7 82 546.8C109.3 544 136.7 544 163.8 548.2C191 552.3 218 560.7 245.2 562C272.3 563.3 299.7 557.7 327 556.5C354.3 555.3 381.7 558.7 409 558.7C436.3 558.7 463.7 555.3 491 552.5C518.3 549.7 545.7 547.3 573 548.2C600.3 549 627.7 553 654.8 557.7C682 562.3 709 567.7 736.2 567C763.3 566.3 790.7 559.7 818 555C845.3 550.3 872.7 547.7 886.3 546.3L900 545L900 601L886.3 601C872.7 601 845.3 601 818 601C790.7 601 763.3 601 736.2 601C709 601 682 601 654.8 601C627.7 601 600.3 601 573 601C545.7 601 518.3 601 491 601C463.7 601 436.3 601 409 601C381.7 601 354.3 601 327 601C299.7 601 272.3 601 245.2 601C218 601 191 601 163.8 601C136.7 601 109.3 601 82 601C54.7 601 27.3 601 13.7 601L0 601Z" fill="#c0c2e6"></path></svg>