<svg id="visual" viewBox="0 0 900 600" width="900" height="600" xmlns="http://www.w3.org/2000/svg" xmlns:xlink="http://www.w3.org/1999/xlink" version="1.1"><path d="M0 389L16.7 391.2C33.3 393.3 66.7 397.7 100 406.5C133.3 415.3 166.7 428.7 200 428.7C233.3 428.7 266.7 415.3 300 415.2C333.3 415 366.7 428 400 433C433.3 438 466.7 435 500 430.5C533.3 426 566.7 420 600 420.3C633.3 420.7 666.7 427.3 700 427.5C733.3 427.7 766.7 421.3 800 419.5C833.3 417.7 866.7 420.3 883.3 421.7L900 423L900 601L883.3 601C866.7 601 833.3 601 800 601C766.7 601 733.3 601 700 601C666.7 601 633.3 601 600 601C566.7 601 533.3 601 500 601C466.7 601 433.3 601 400 601C366.7 601 333.3 601 300 601C266.7 601 233.3 601 200 601C166.7 601 133.3 601 100 601C66.7 601 33.3 601 16.7 601L0 601Z" fill="#8c5ac7"></path><path d="M0 431L16.7 435.3C33.3 439.7 66.7 448.3 100 445.5C133.3 442.7 166.7 428.3 200 422.8C233.3 417.3 266.7 420.7 300 428.8C333.3 437 366.7 450 400 449C433.3 448 466.7 433 500 427.3C533.3 421.7 566.7 425.3 600 433.2C633.3 441 666.7 453 700 457.8C733.3 462.7 766.7 460.3 800 455.2C833.3 450 866.7 442 883.3 438L900 434L900 601L883.3 601C866.7 601 833.3 601 800 601C766.7 601 733.3 601 700 601C666.7 601 633.3 601 600 601C566.7 601 533.3 601 500 601C466.7 601 433.3 601 400 601C366.7 601 333.3 601 300 601C266.7 601 233.3 601 200 601C166.7 601 133.3 601 100 601C66.7 601 33.3 601 16.7 601L0 601Z" fill="#9471d2"></path><path d="M0 447L16.7 449.7C33.3 452.3 66.7 457.7 100 455.8C133.3 454 166.7 445 200 443.8C233.3 442.7 266.7 449.3 300 451.2C333.3 453 366.7 450 400 447.8C433.3 445.7 466.7 444.3 500 449.5C533.3 454.7 566.7 466.3 600 465.7C633.3 465 666.7 452 700 446.2C733.3 440.3 766.7 441.7 800 442C833.3 442.3 866.7 441.7 883.3 441.3L900 441L900 601L883.3 601C866.7 601 833.3 601 800 601C766.7 601 733.3 601 700 601C666.7 601 633.3 601 600 601C566.7 601 533.3 601 500 601C466.7 601 433.3 601 400 601C366.7 601 333.3 601 300 601C266.7 601 233.3 601 200 601C166.7 601 133.3 601 100 601C66.7 601 33.3 601 16.7 601L0 601Z" fill="#9e87db"></path><path d="M0 464L16.7 468.5C33.3 473 66.7 482 100 484.5C133.3 487 166.7 483 200 482.3C233.3 481.7 266.7 484.3 300 486.2C333.3 488 366.7 489 400 489.8C433.3 490.7 466.7 491.3 500 486.5C533.3 481.7 566.7 471.3 600 472.2C633.3 473 666.7 485 700 488.7C733.3 492.3 766.7 487.7 800 488.7C833.3 489.7 866.7 496.3 883.3 499.7L900 503L900 601L883.3 601C866.7 601 833.3 601 800 601C766.7 601 733.3 601 700 601C666.7 601 633.3 601 600 601C566.7 601 533.3 601 500 601C466.7 601 433.3 601 400 601C366.7 601 333.3 601 300 601C266.7 601 233.3 601 200 601C166.7 601 133.3 601 100 601C66.7 601 33.3 601 16.7 601L0 601Z" fill="#aa9ce3"></path><path d="M0 483L16.7 488.3C33.3 493.7 66.7 504.3 100 511C133.3 517.7 166.7 520.3 200 521.2C233.3 522 266.7 521 300 514C333.3 507 366.7 494 400 494.2C433.3 494.3 466.7 507.7 500 511.2C533.3 514.7 566.7 508.3 600 508.5C633.3 508.7 666.7 515.3 700 512.7C733.3 510 766.7 498 800 495.8C833.3 493.7 866.7 501.3 883.3 505.2L900 509L900 601L883.3 601C866.7 601 833.3 601 800 601C766.7 601 733.3 601 700 601C666.7 601 633.3 601 600 601C566.7 601 533.3 601 500 601C466.7 601 433.3 601 400 601C366.7 601 333.3 601 300 601C266.7 601 233.3 601 200 601C166.7 601 133.3 601 100 601C66.7 601 33.3 601 16.7 601L0 601Z" fill="#b8b2ea"></path><path d="M0 516L16.7 518.5C33.3 521 66.7 526 100 531C133.3 536 166.7 541 200 542.5C233.3 544 266.7 542 300 538C333.3 534 366.7 528 400 527.7C433.3 527.3 466.7 532.7 500 534.5C533.3 536.3 566.7 534.7 600 530.8C633.3 527 666.7 521 700 520.3C733.3 519.7 766.7 524.3 800 525.2C833.3 526 866.7 523 883.3 521.5L900 520L900 601L883.3 601C866.7 601 833.3 601 800 601C766.7 601 733.3 601 700 601C666.7 601 633.3 601 600 601C566.7 601 533.3 601 500 601C466.7 601 433.3 601 400 601C366.7 601 333.3 601 300 601C266.7 601 233.3 601 200 601C166.7 601 133.3 601 100 601C66.7 601 33.3 601 16.7 601L0 601Z" fill="#c8c6f0"></path><path d="M0 541L16.7 543C33.3 545 66.7 549 100 553C133.3 557 166.7 561 200 560.2C233.3 559.3 266.7 553.7 300 553.5C333.3 553.3 366.7 558.7 400 557.5C433.3 556.3 466.7 548.7 500 547.7C533.3 546.7 566.7 552.3 600 551.3C633.3 550.3 666.7 542.7 700 540.7C733.3 538.7 766.7 542.3 800 545.7C833.3 549 866.7 552 883.3 553.5L900 555L900 601L883.3 601C866.7 601 833.3 601 800 601C766.7 601 733.3 601 700 601C666.7 601 633.3 601 600 601C566.7 601 533.3 601 500 601C466.7 601 433.3 601 400 601C366.7 601 333.3 601 300 601C266.7 601 233.3 601 200 601C166.7 601 133.3 601 100 601C66.7 601 33.3 601 16.7 601L0 601Z" fill="#dadbf4"></path><path d="M0 578L16.7 578.8C33.3 579.7 66.7 581.3 100 581.2C133.3 581 166.7 579 200 578.7C233.3 578.3 266.7 579.7 300 579.3C333.3 579 366.7 577 400 577.5C433.3 578 466.7 581 500 583.2C533.3 585.3 566.7 586.7 600 583.2C633.3 579.7 666.7 571.3 700 570C733.3 568.7 766.7 574.3 800 574.3C833.3 574.3 866.7 568.7 883.3 565.8L900 563L900 601L883.3 601C866.7 601 833.3 601 800 601C766.7 601 733.3 601 700 601C666.7 601 633.3 601 600 601C566.7 601 533.3 601 500 601C466.7 601 433.3 601 400 601C366.7 601 333.3 601 300 601C266.7 601 233.3 601 200 601C166.7 601 133.3 601 100 601C66.7 601 33.3 601 16.7 601L0 601Z" fill="#eeeff8"></path></svg>