<svg id="visual" viewBox="0 0 900 600" width="900" height="600" xmlns="http://www.w3.org/2000/svg" xmlns:xlink="http://www.w3.org/1999/xlink" version="1.1"><path d="M0 456L11.5 460C23 464 46 472 69 477.2C92 482.3 115 484.7 138.2 482.8C161.3 481 184.7 475 207.8 473.2C231 471.3 254 473.7 277 472.8C300 472 323 468 346 468C369 468 392 472 415.2 472.8C438.3 473.7 461.7 471.3 484.8 468.2C508 465 531 461 554 464C577 467 600 477 623 477.8C646 478.7 669 470.3 692.2 468.3C715.3 466.3 738.7 470.7 761.8 471.7C785 472.7 808 470.3 831 468C854 465.7 877 463.3 888.5 462.2L900 461L900 601L888.5 601C877 601 854 601 831 601C808 601 785 601 761.8 601C738.7 601 715.3 601 692.2 601C669 601 646 601 623 601C600 601 577 601 554 601C531 601 508 601 484.8 601C461.7 601 438.3 601 415.2 601C392 601 369 601 346 601C323 601 300 601 277 601C254 601 231 601 207.8 601C184.7 601 161.3 601 138.2 601C115 601 92 601 69 601C46 601 23 601 11.5 601L0 601Z" fill="#8c5ac7"></path><path d="M0 478L11.5 478.7C23 479.3 46 480.7 69 485.7C92 490.7 115 499.3 138.2 501.5C161.3 503.7 184.7 499.3 207.8 496.8C231 494.3 254 493.7 277 492.5C300 491.3 323 489.7 346 486.3C369 483 392 478 415.2 482.2C438.3 486.3 461.7 499.7 484.8 502.7C508 505.7 531 498.3 554 493C577 487.7 600 484.3 623 483.2C646 482 669 483 692.2 482C715.3 481 738.7 478 761.8 480.3C785 482.7 808 490.3 831 493.7C854 497 877 496 888.5 495.5L900 495L900 601L888.5 601C877 601 854 601 831 601C808 601 785 601 761.8 601C738.7 601 715.3 601 692.2 601C669 601 646 601 623 601C600 601 577 601 554 601C531 601 508 601 484.8 601C461.7 601 438.3 601 415.2 601C392 601 369 601 346 601C323 601 300 601 277 601C254 601 231 601 207.8 601C184.7 601 161.3 601 138.2 601C115 601 92 601 69 601C46 601 23 601 11.5 601L0 601Z" fill="#9377d3"></path><path d="M0 508L11.5 511C23 514 46 520 69 522.8C92 525.7 115 525.3 138.2 521.5C161.3 517.7 184.7 510.3 207.8 507.5C231 504.7 254 506.3 277 510.5C300 514.7 323 521.3 346 524.5C369 527.7 392 527.3 415.2 523.5C438.3 519.7 461.7 512.3 484.8 512.3C508 512.3 531 519.7 554 522.2C577 524.7 600 522.3 623 522.5C646 522.7 669 525.3 692.2 524.2C715.3 523 738.7 518 761.8 516.2C785 514.3 808 515.7 831 517.8C854 520 877 523 888.5 524.5L900 526L900 601L888.5 601C877 601 854 601 831 601C808 601 785 601 761.8 601C738.7 601 715.3 601 692.2 601C669 601 646 601 623 601C600 601 577 601 554 601C531 601 508 601 484.8 601C461.7 601 438.3 601 415.2 601C392 601 369 601 346 601C323 601 300 601 277 601C254 601 231 601 207.8 601C184.7 601 161.3 601 138.2 601C115 601 92 601 69 601C46 601 23 601 11.5 601L0 601Z" fill="#9e91dc"></path><path d="M0 545L11.5 546.8C23 548.7 46 552.3 69 550C92 547.7 115 539.3 138.2 538.3C161.3 537.3 184.7 543.7 207.8 546.3C231 549 254 548 277 546.8C300 545.7 323 544.3 346 545.2C369 546 392 549 415.2 546.7C438.3 544.3 461.7 536.7 484.8 538C508 539.3 531 549.7 554 554.7C577 559.7 600 559.3 623 556.8C646 554.3 669 549.7 692.2 546C715.3 542.3 738.7 539.7 761.8 541.8C785 544 808 551 831 554.3C854 557.7 877 557.3 888.5 557.2L900 557L900 601L888.5 601C877 601 854 601 831 601C808 601 785 601 761.8 601C738.7 601 715.3 601 692.2 601C669 601 646 601 623 601C600 601 577 601 554 601C531 601 508 601 484.8 601C461.7 601 438.3 601 415.2 601C392 601 369 601 346 601C323 601 300 601 277 601C254 601 231 601 207.8 601C184.7 601 161.3 601 138.2 601C115 601 92 601 69 601C46 601 23 601 11.5 601L0 601Z" fill="#adaae2"></path><path d="M0 578L11.5 574.2C23 570.3 46 562.7 69 563.3C92 564 115 573 138.2 577.5C161.3 582 184.7 582 207.8 580.3C231 578.7 254 575.3 277 573.8C300 572.3 323 572.7 346 572.7C369 572.7 392 572.3 415.2 573.8C438.3 575.3 461.7 578.7 484.8 580C508 581.3 531 580.7 554 577.3C577 574 600 568 623 564.8C646 561.7 669 561.3 692.2 562.2C715.3 563 738.7 565 761.8 566.2C785 567.3 808 567.7 831 566.5C854 565.3 877 562.7 888.5 561.3L900 560L900 601L888.5 601C877 601 854 601 831 601C808 601 785 601 761.8 601C738.7 601 715.3 601 692.2 601C669 601 646 601 623 601C600 601 577 601 554 601C531 601 508 601 484.8 601C461.7 601 438.3 601 415.2 601C392 601 369 601 346 601C323 601 300 601 277 601C254 601 231 601 207.8 601C184.7 601 161.3 601 138.2 601C115 601 92 601 69 601C46 601 23 601 11.5 601L0 601Z" fill="#c0c2e6"></path></svg>